<svg width="100%" height="100%" viewBox="0 0 1000 1000" xmlns="http://www.w3.org/2000/svg" preserveAspectRatio="none">
  <defs>
    <linearGradient id="grad1" x1="0%" y1="0%" x2="0%" y2="100%">
      <stop offset="0%" style="stop-color:#aaa; stop-opacity:1"/>
      <stop offset="100%" style="stop-color:#000; stop-opacity:1"/>
    </linearGradient>
  </defs>
  <rect width="100%" height="100%" fill="url(#grad1)"/>
  <path d="M0 -60 Q250 -250 500 -60 T1000 -60 V1000 H0 Z" fill="#777"/>
  <path d="M0 100 Q250 -100 500 100 T1000 100 V1000 H0 Z" fill="#666"/>
  <path d="M0 300 Q250 100 500 300 T1000 300 V1000 H0 Z" fill="#555"/>
  <path d="M0 500 Q250 300 500 500 T1000 500 V1000 H0 Z" fill="#333"/>
  <path d="M0 700 Q250 500 500 700 T1000 700 V1000 H0 Z" fill="#222"/>
  <path d="M0 900 Q250 700 500 900 T1000 900 V1000 H0 Z" fill="#111"/>
</svg>