<svg width="16" height="16" viewBox="0 0 16 16" fill="none" xmlns="http://www.w3.org/2000/svg">
<path d="M15.8125 8.00006C15.8125 8.2487 15.7137 8.48716 15.5379 8.66297C15.3621 8.83879 15.1236 8.93756 14.875 8.93756H8.9375V14.8751C8.9375 15.1237 8.83873 15.3622 8.66291 15.538C8.4871 15.7138 8.24864 15.8126 8 15.8126C7.75136 15.8126 7.5129 15.7138 7.33709 15.538C7.16127 15.3622 7.0625 15.1237 7.0625 14.8751V8.93756H1.125C0.87636 8.93756 0.637903 8.83879 0.462087 8.66297C0.286272 8.48716 0.1875 8.2487 0.1875 8.00006C0.1875 7.75142 0.286272 7.51296 0.462087 7.33715C0.637903 7.16133 0.87636 7.06256 1.125 7.06256H7.0625V1.12506C7.0625 0.876421 7.16127 0.637964 7.33709 0.462148C7.5129 0.286333 7.75136 0.187561 8 0.187561C8.24864 0.187561 8.4871 0.286333 8.66291 0.462148C8.83873 0.637964 8.9375 0.876421 8.9375 1.12506V7.06256H14.875C15.1236 7.06256 15.3621 7.16133 15.5379 7.33715C15.7137 7.51296 15.8125 7.75142 15.8125 8.00006Z" fill="black"/>
</svg>
