<svg xmlns="http://www.w3.org/2000/svg" viewBox="0 0 350 32.069645826712886" width="350" height="32.069645826712886">
  <defs id="SvgjsDefs2975"></defs>
  <g id="SvgjsG2976" featurekey="K5GtsI-0" transform="matrix(2.1610273245934155,0,0,2.1610273245934155,-2.5500123872843683,-11.928871820995457)" fill="#000000">
    <path d="M10.18 14.68 l0 -8.7 l2.64 0 l0 14.02 l-1.64 0 l0 0.02 l-7.36 -9.46 l0 9.44 l-2.64 0 l0 -14 l2.14 0 z M25.68 17.4 l0 2.6 l-10.48 0 l0 -14 l10.48 0 l0 2.56 l-7.86 0 l0 3.22 l7.58 0 l0 2.46 l-7.58 0 l0 3.16 l7.86 0 z M39.760000000000005 7.74 l-1.64 1.68 c-0.94 -0.9 -2.34 -1.4 -3.56 -1.4 c-3 0 -4.82 2.28 -4.82 5.16 c0 2.3 1.34 4.68 4.82 4.68 c1.1 0 2.06 -0.24 3.16 -1.12 l0 -2.48 l-3.58 0 l0 -2.36 l6 0 l0 5.9 c-1.38 1.58 -3.12 2.52 -5.58 2.52 c-5.26 0 -7.4 -3.46 -7.4 -7.14 c0 -3.94 2.46 -7.58 7.4 -7.58 c1.88 0 3.76 0.72 5.2 2.14 z M54.519999999999996 19.82 l0 0.18 l-3.14 0 l-4.08 -4.68 l-2.54 0 l0 4.68 l-2.64 0 l0 -14.02 c2.22 0 4.44 0.02 6.66 0.02 c3.3 0.02 5.04 2.22 5.04 4.64 c0 1.92 -0.88 3.86 -3.54 4.4 z M48.78 8.46 l-4.02 0 l0 4.48 l4.02 0 c1.68 0 2.4 -1.12 2.4 -2.24 s-0.74 -2.24 -2.4 -2.24 z M62.18 5.720000000000001 c4.82 0 7.22 3.7 7.18 7.36 c-0.04 3.62 -2.26 7.24 -7.18 7.24 s-7.2 -3.54 -7.2 -7.22 s2.36 -7.38 7.2 -7.38 z M62.18 8.12 c-3.3 0 -4.66 2.66 -4.6 5.02 c0.06 2.3 1.3 4.76 4.6 4.76 s4.54 -2.48 4.58 -4.78 c0.04 -2.36 -1.28 -5 -4.58 -5 z M77.98 20 l-2.64 0 l0 -13.98 l10.06 0 l0 2.54 l-7.42 0 l0 3.82 l7.02 0 l0 2.44 l-7.02 0 l0 5.18 z M98.33999999999999 20 l-1.18 -2.64 l-7.32 0 l-1.2 2.64 l-2.86 0 l6.28 -14 l2.88 0 l6.28 14 l-2.88 0 z M96.1 14.9 l-2.6 -5.96 l-2.6 5.96 l5.2 0 z M112.94 8.3 l-2.1 1.08 c-0.48 -0.8 -1.8 -1.56 -3.32 -1.56 c-1.96 0 -2.9 0.82 -2.9 1.86 c0 1.22 1.44 1.56 3.12 1.76 c2.92 0.36 5.64 1.12 5.64 4.46 c0 3.12 -2.76 4.46 -5.88 4.46 c-2.86 0 -5.06 -0.88 -6.1 -3.44 l2.2 -1.14 c0.62 1.54 2.24 2.22 3.94 2.22 c1.66 0 3.22 -0.58 3.22 -2.1 c0 -1.32 -1.38 -1.86 -3.24 -2.06 c-2.86 -0.34 -5.5 -1.1 -5.5 -4.24 c0 -2.88 2.84 -4.06 5.42 -4.08 c2.18 0 4.44 0.62 5.5 2.78 z M127.58 20.02 l-2.62 0 l0 -5.66 l-6.88 0 l0 5.66 l-2.64 0 l0 -14 l2.64 0 l0 5.9 l6.88 0 l0 -5.9 l2.62 0 l0 14 z M132.7 20 l-2.62 0 l0 -14 l2.62 0 l0 14 z M142.17999999999998 5.720000000000001 c4.82 0 7.22 3.7 7.18 7.36 c-0.04 3.62 -2.26 7.24 -7.18 7.24 s-7.2 -3.54 -7.2 -7.22 s2.36 -7.38 7.2 -7.38 z M142.17999999999998 8.12 c-3.3 0 -4.66 2.66 -4.6 5.02 c0.06 2.3 1.3 4.76 4.6 4.76 s4.54 -2.48 4.58 -4.78 c0.04 -2.36 -1.28 -5 -4.58 -5 z M160.49999999999997 14.68 l0 -8.7 l2.64 0 l0 14.02 l-1.64 0 l0 0.02 l-7.36 -9.46 l0 9.44 l-2.64 0 l0 -14 l2.14 0 z"></path>
  </g>
</svg>
