<svg width="21" height="21" viewBox="0 0 21 21" fill="none" xmlns="http://www.w3.org/2000/svg">
<path d="M20.4659 18.874L16.0137 14.4199C17.3486 12.6804 17.9718 10.4982 17.7569 8.31599C17.5421 6.13382 16.5052 4.11508 14.8566 2.66929C13.2081 1.22349 11.0713 0.45891 8.87976 0.530634C6.68821 0.602359 4.606 1.50502 3.0555 3.05551C1.50501 4.606 0.602351 6.68822 0.530627 8.87977C0.458902 11.0713 1.22349 13.2081 2.66928 14.8567C4.11507 16.5052 6.13381 17.5421 8.31599 17.757C10.4982 17.9718 12.6804 17.3486 14.4199 16.0137L18.8759 20.4705C18.9805 20.5752 19.1047 20.6582 19.2415 20.7148C19.3782 20.7715 19.5247 20.8006 19.6727 20.8006C19.8207 20.8006 19.9673 20.7715 20.104 20.7148C20.2407 20.6582 20.365 20.5752 20.4696 20.4705C20.5742 20.3659 20.6573 20.2417 20.7139 20.1049C20.7705 19.9682 20.7997 19.8217 20.7997 19.6737C20.7997 19.5257 20.7705 19.3791 20.7139 19.2424C20.6573 19.1057 20.5742 18.9814 20.4696 18.8768L20.4659 18.874ZM2.79492 9.16992C2.79492 7.90907 3.1688 6.67653 3.8693 5.62816C4.56979 4.5798 5.56543 3.7627 6.73031 3.28019C7.89519 2.79768 9.17699 2.67144 10.4136 2.91742C11.6502 3.1634 12.7862 3.77056 13.6777 4.66212C14.5693 5.55368 15.1764 6.68959 15.4224 7.92622C15.6684 9.16285 15.5422 10.4447 15.0596 11.6095C14.5771 12.7744 13.76 13.77 12.7117 14.4705C11.6633 15.171 10.4308 15.5449 9.16992 15.5449C7.47969 15.5432 5.8592 14.871 4.66403 13.6758C3.46886 12.4806 2.79665 10.8601 2.79492 9.16992Z" fill="black" fill-opacity="0.4"/>
</svg>
